<svg width="266" height="266" viewBox="0 0 266 266" fill="none" xmlns="http://www.w3.org/2000/svg">
<rect width="266" height="266" rx="59.1111" fill="#EA580C"/>
<path d="M137.971 210.181C125.147 210.181 115.023 206.072 107.598 197.854C100.343 189.636 96.7148 177.908 96.7148 162.67V101.804H87.0968C85.4094 101.804 83.9752 101.29 82.794 100.263C81.7816 99.0643 81.2754 97.609 81.2754 95.8969V90.2469C81.2754 86.309 83.2159 84.3401 87.0968 84.3401H91.9058C99.6677 84.3401 106.333 82.0287 111.901 77.406C117.469 72.612 121.097 66.2772 122.785 58.4014C123.628 53.9499 125.906 51.7241 129.618 51.7241H135.44C139.996 51.7241 142.274 53.9499 142.274 58.4014V84.3401H168.344C170.031 84.3401 171.381 84.9393 172.393 86.1378C173.574 87.1651 174.165 88.5348 174.165 90.2469V95.8969C174.165 97.609 173.574 99.0643 172.393 100.263C171.381 101.29 170.031 101.804 168.344 101.804H142.274V163.44C142.274 167.72 143.37 171.145 145.564 173.713C147.758 176.11 150.457 177.308 153.663 177.308C160.919 177.308 166.487 174.141 170.368 167.806C171.55 166.265 172.899 165.409 174.418 165.238C175.937 164.895 177.202 165.152 178.215 166.008C179.396 166.864 179.986 168.063 179.986 169.604C179.986 180.39 176.19 189.892 168.597 198.111C161.172 206.158 150.964 210.181 137.971 210.181Z" fill="white"/>
</svg>
